<svg width="365" height="476" viewBox="0 0 365 476" fill="none" xmlns="http://www.w3.org/2000/svg">
<path d="M0 0L50.6947 60.7659H10.1391L0 0Z" fill="#0D0D0D"/>
<path d="M365 0L314.305 60.7659H354.861L365 0Z" fill="#0D0D0D"/>
<path d="M70.9722 172.17L10.1391 60.7659L20.2782 141.787L70.9722 172.17Z" fill="#1F1F1F"/>
<path d="M294.028 172.17L354.861 60.7659L344.722 141.787L294.028 172.17Z" fill="#1F1F1F"/>
<path d="M70.9722 91.1486L50.6947 60.7659L70.9722 172.17V91.1486Z" fill="#0D0D0D"/>
<path d="M294.028 91.1486L314.305 60.7659L294.028 172.17V91.1486Z" fill="#0D0D0D"/>
<path d="M70.9722 172.17L10.1391 60.7659H50.6947L70.9722 172.17Z" fill="#0D0D0D"/>
<path d="M294.028 172.17L354.861 60.7659H314.305L294.028 172.17Z" fill="#0D0D0D"/>
<path d="M70.9722 172.17V91.1486L121.667 162.042L70.9722 172.17Z" fill="#0D0D0D"/>
<path d="M294.028 172.17V91.1486L243.333 162.042L294.028 172.17Z" fill="#0D0D0D"/>
<path d="M20.2782 141.787L70.9722 172.17L30.4165 202.553L20.2782 141.787Z" fill="#1A1A1A"/>
<path d="M344.722 141.787L294.028 172.17L334.583 202.553L344.722 141.787Z" fill="#1A1A1A"/>
<path d="M30.4165 202.553L70.9722 172.17V243.064L30.4165 202.553Z" fill="#1A1A1A"/>
<path d="M334.583 202.553L294.028 172.17V243.064L334.583 202.553Z" fill="#1A1A1A"/>
<path d="M70.9722 243.064V172.17L101.389 212.681L70.9722 243.064Z" fill="#121212"/>
<path d="M294.028 243.064V172.17L263.611 212.681L294.028 243.064Z" fill="#121212"/>
<path d="M101.389 212.681L70.9722 172.17L121.667 162.042L101.389 212.681Z" fill="#030303"/>
<path d="M263.611 212.681L294.028 172.17L243.333 162.042L263.611 212.681Z" fill="#030303"/>
<path d="M101.389 212.681L121.667 162.042L141.944 192.426L101.389 212.681Z" fill="#030303"/>
<path d="M263.611 212.681L243.333 162.042L223.056 192.426L263.611 212.681Z" fill="#030303"/>
<path d="M70.9722 243.064L101.389 283.574L50.6947 303.829L70.9722 243.064Z" fill="#121212"/>
<path d="M294.028 243.064L263.611 283.574L314.305 303.829L294.028 243.064Z" fill="#121212"/>
<path d="M101.389 283.574L70.9722 243.064L101.389 212.681V283.574Z" fill="#090909"/>
<path d="M263.611 283.574L294.028 243.064L263.611 212.681V283.574Z" fill="#090909"/>
<path d="M101.389 283.574V212.681L141.944 192.426L101.389 283.574Z" fill="#080808"/>
<path d="M263.611 283.574V212.681L223.056 192.426L263.611 283.574Z" fill="#080808"/>
<path d="M101.389 283.574L141.944 192.426V283.574H101.389Z" fill="#030303"/>
<path d="M263.611 283.574L223.056 192.426V283.574H263.611Z" fill="#030303"/>
<path d="M50.6947 303.829L101.389 283.574L70.9722 324.085L50.6947 303.829Z" fill="#1B1B1B"/>
<path d="M314.305 303.829L263.611 283.574L294.028 324.085L314.305 303.829Z" fill="#1B1B1B"/>
<path d="M141.944 192.426V243.064L182.5 202.553L141.944 192.426Z" fill="#030303"/>
<path d="M223.056 192.426V243.064L182.5 202.553L223.056 192.426Z" fill="#030303"/>
<path d="M141.944 243.064L182.5 202.553V243.064H141.944Z" fill="#010101"/>
<path d="M223.056 243.064L182.5 202.553V243.064H223.056Z" fill="#010101"/>
<path d="M182.5 243.064H141.944V283.574L182.5 243.064Z" fill="#020202"/>
<path d="M182.5 243.064H223.056V283.574L182.5 243.064Z" fill="#020202"/>
<path d="M182.5 243.064L141.944 283.574H182.5V243.064Z" fill="#1A1A1A"/>
<path d="M182.5 243.064L223.056 283.574H182.5V243.064Z" fill="#1A1A1A"/>
<path d="M70.9722 324.085L91.2504 334.213L40.5556 394.979L70.9722 324.085Z" fill="#0A0A0A"/>
<path d="M294.028 324.085L273.75 334.213L324.444 394.979L294.028 324.085Z" fill="#0A0A0A"/>
<path d="M101.389 283.574L70.9722 324.085L81.5113 329.348L101.389 283.574Z" fill="#151515"/>
<path d="M263.611 283.574L294.028 324.085L283.489 329.348L263.611 283.574Z" fill="#151515"/>
<path d="M81.5113 329.348L91.2504 334.213L40.5556 394.979L81.5113 329.348Z" fill="#0A0A0A"/>
<path d="M283.489 329.348L273.75 334.213L324.444 394.979L283.489 329.348Z" fill="#0A0A0A"/>
<path d="M81.5113 329.348L101.389 283.574L111.528 293.702L81.5113 329.348Z" fill="white"/>
<path d="M283.489 329.348L263.611 283.574L253.472 293.702L283.489 329.348Z" fill="white"/>
<path d="M91.2504 334.213L121.667 344.34L111.528 303.829L91.2504 334.213Z" fill="white"/>
<path d="M273.75 334.213L243.333 344.34L253.472 303.829L273.75 334.213Z" fill="white"/>
<path d="M111.528 293.702L81.5113 329.348L91.2504 334.213L111.528 293.702Z" fill="white"/>
<path d="M253.472 293.702L283.489 329.348L273.75 334.213L253.472 293.702Z" fill="white"/>
<path d="M111.528 293.702V303.829L91.2504 334.213L111.528 293.702Z" fill="white"/>
<path d="M253.472 293.702V303.829L273.75 334.213L253.472 293.702Z" fill="white"/>
<path d="M111.528 293.702L131.805 344.34L152.083 334.213L111.528 293.702Z" fill="white"/>
<path d="M253.472 293.702L233.195 344.34L212.917 334.213L253.472 293.702Z" fill="white"/>
<path d="M121.667 344.34L111.528 303.829L131.805 344.34H121.667Z" fill="white"/>
<path d="M243.333 344.34L253.472 303.829L233.195 344.34H243.333Z" fill="white"/>
<path d="M111.528 293.702V303.829L131.805 344.34L111.528 293.702Z" fill="white"/>
<path d="M253.472 293.702V303.829L233.195 344.34L253.472 293.702Z" fill="white"/>
<path d="M141.944 283.574H101.389L152.083 334.213L141.944 283.574Z" fill="#0B0B0B"/>
<path d="M223.056 283.574H263.611L212.917 334.213L223.056 283.574Z" fill="#0B0B0B"/>
<path d="M141.944 283.574H182.5V324.085L141.944 283.574Z" fill="#121212"/>
<path d="M223.056 283.574H182.5V324.085L223.056 283.574Z" fill="#121212"/>
<path d="M152.083 334.213L141.944 283.574L182.5 324.085L152.083 334.213Z" fill="#0A0A0A"/>
<path d="M212.917 334.213L223.056 283.574L182.5 324.085L212.917 334.213Z" fill="#0A0A0A"/>
<path d="M152.083 334.213L182.5 324.085V364.596L152.083 334.213Z" fill="#020202"/>
<path d="M212.917 334.213L182.5 324.085V364.596L212.917 334.213Z" fill="#020202"/>
<path d="M182.5 364.596L152.083 334.213V394.979L182.5 364.596Z" fill="#010101"/>
<path d="M182.5 364.596L212.917 334.213V394.979L182.5 364.596Z" fill="#010101"/>
<path d="M40.5556 394.979L121.667 344.34H131.805L40.5556 394.979Z" fill="#101010"/>
<path d="M324.444 394.979L243.333 344.34H233.195L324.444 394.979Z" fill="#101010"/>
<path d="M40.5556 394.979L91.2504 334.213L121.667 344.34L40.5556 394.979Z" fill="#0E0E0E"/>
<path d="M324.444 394.979L273.75 334.213L243.333 344.34L324.444 394.979Z" fill="#0E0E0E"/>
<path d="M40.5556 394.979L75.6208 375.519L91.2504 445.616L40.5556 394.979Z" fill="#222222"/>
<path d="M324.444 394.979L289.379 375.519L273.75 445.616L324.444 394.979Z" fill="#222222"/>
<path d="M75.6208 375.519L131.805 344.34H121.667L75.6208 375.519Z" fill="#101010"/>
<path d="M289.379 375.519L233.195 344.34H243.333L289.379 375.519Z" fill="#101010"/>
<path d="M91.2504 445.616L91.9068 366.482L152.083 394.979L91.2504 445.616Z" fill="#202020"/>
<path d="M273.75 445.616L273.093 366.482L212.917 394.979L273.75 445.616Z" fill="#202020"/>
<path d="M91.9068 366.482L121.667 344.34H131.805L91.9068 366.482Z" fill="#101010"/>
<path d="M273.093 366.482L243.333 344.34H233.195L273.093 366.482Z" fill="#101010"/>
<path d="M152.083 394.979H182.5V435.489L152.083 394.979Z" fill="white"/>
<path d="M212.917 394.979H182.5V435.489L212.917 394.979Z" fill="white"/>
<path d="M182.5 364.596L152.083 394.979H182.5V364.596Z" fill="#020202"/>
<path d="M182.5 364.596L212.917 394.979H182.5V364.596Z" fill="#020202"/>
<path d="M91.2504 445.616L152.083 394.979L162.223 435.489L91.2504 445.616Z" fill="#0B0B0B"/>
<path d="M273.75 445.616L212.917 394.979L202.777 435.489L273.75 445.616Z" fill="#0B0B0B"/>
<path d="M162.223 435.489L152.083 394.979L182.5 435.489H162.223Z" fill="#191919"/>
<path d="M202.777 435.489L212.917 394.979L182.5 435.489H202.777Z" fill="#191919"/>
<path d="M131.805 344.34L152.083 334.213V394.979L131.805 344.34Z" fill="#101010"/>
<path d="M233.195 344.34L212.917 334.213V394.979L233.195 344.34Z" fill="#101010"/>
<path d="M152.083 394.979L131.805 344.34L91.9068 366.482L152.083 394.979Z" fill="#060606"/>
<path d="M212.917 394.979L233.195 344.34L273.093 366.482L212.917 394.979Z" fill="#060606"/>
<path d="M91.2504 445.616L162.223 435.489L152.083 465.872L91.2504 445.616Z" fill="#404040"/>
<path d="M273.75 445.616L202.777 435.489L212.917 465.872L273.75 445.616Z" fill="#404040"/>
<path d="M152.083 465.872L162.223 435.489H182.5L152.083 465.872Z" fill="#404040"/>
<path d="M212.917 465.872L202.777 435.489H182.5L212.917 465.872Z" fill="#404040"/>
<path d="M182.5 435.489L152.083 465.872L182.5 476V435.489Z" fill="#424242"/>
<path d="M182.5 435.489L212.917 465.872L182.5 476V435.489Z" fill="#424242"/>
<path d="M91.2504 445.616L75.6208 375.519L91.9068 366.482L91.2504 445.616Z" fill="#1F1F1F"/>
<path d="M273.75 445.616L289.379 375.519L273.093 366.482L273.75 445.616Z" fill="#1F1F1F"/>
</svg>
