<svg width="512" height="512" viewBox="0 0 512 512" fill="none" xmlns="http://www.w3.org/2000/svg">
<rect width="512" height="512" rx="50" fill="url(#paint0_linear_4439_5)"/>
<path d="M100 53L143.334 104.957H108.667L100 53Z" fill="#F3F3F3"/>
<path d="M412 53L368.666 104.957H403.333L412 53Z" fill="#F3F3F3"/>
<path d="M160.667 200.213L108.667 104.957L117.334 174.234L160.667 200.213Z" fill="#ECECEC"/>
<path d="M351.333 200.213L403.333 104.957L394.666 174.234L351.333 200.213Z" fill="#ECECEC"/>
<path d="M160.667 130.936L143.334 104.957L160.667 200.213V130.936Z" fill="#F3F3F3"/>
<path d="M351.333 130.936L368.666 104.957L351.333 200.213V130.936Z" fill="#F3F3F3"/>
<path d="M160.667 200.213L108.667 104.957H143.334L160.667 200.213Z" fill="#F3F3F3"/>
<path d="M351.333 200.213L403.333 104.957H368.666L351.333 200.213Z" fill="#F3F3F3"/>
<path d="M160.667 200.213V130.936L204 191.553L160.667 200.213Z" fill="#F3F3F3"/>
<path d="M351.333 200.213V130.936L308 191.553L351.333 200.213Z" fill="#F3F3F3"/>
<path d="M117.334 174.234L160.667 200.213L126 226.191L117.334 174.234Z" fill="#E7E7E7"/>
<path d="M394.666 174.234L351.333 200.213L386 226.191L394.666 174.234Z" fill="#E7E7E7"/>
<path d="M126 226.191L160.667 200.213V260.83L126 226.191Z" fill="#E5E5E5"/>
<path d="M386 226.191L351.333 200.213V260.83L386 226.191Z" fill="#E5E5E5"/>
<path d="M160.667 260.83V200.213L186.667 234.851L160.667 260.83Z" fill="#EEEEEE"/>
<path d="M351.333 260.83V200.213L325.333 234.851L351.333 260.83Z" fill="#EEEEEE"/>
<path d="M186.667 234.851L160.667 200.213L204 191.553L186.667 234.851Z" fill="#FCFCFC"/>
<path d="M325.333 234.851L351.333 200.213L308 191.553L325.333 234.851Z" fill="#FCFCFC"/>
<path d="M186.667 234.851L204 191.553L221.333 217.532L186.667 234.851Z" fill="#FCFCFC"/>
<path d="M325.333 234.851L308 191.553L290.667 217.532L325.333 234.851Z" fill="#FCFCFC"/>
<path d="M160.667 260.83L186.667 295.468L143.334 312.787L160.667 260.83Z" fill="#EEEEEE"/>
<path d="M351.333 260.83L325.333 295.468L368.666 312.787L351.333 260.83Z" fill="#EEEEEE"/>
<path d="M186.667 295.468L160.667 260.83L186.667 234.851V295.468Z" fill="#F7F7F7"/>
<path d="M325.333 295.468L351.333 260.83L325.333 234.851V295.468Z" fill="#F7F7F7"/>
<path d="M186.667 295.468V234.851L221.333 217.532L186.667 295.468Z" fill="#F8F8F8"/>
<path d="M325.333 295.468V234.851L290.667 217.532L325.333 295.468Z" fill="#F8F8F8"/>
<path d="M186.667 295.468L221.333 217.532V295.468H186.667Z" fill="#FCFCFC"/>
<path d="M325.333 295.468L290.667 217.532V295.468H325.333Z" fill="#FCFCFC"/>
<path d="M143.334 312.787L186.667 295.468L160.667 330.106L143.334 312.787Z" fill="#E4E4E4"/>
<path d="M368.666 312.787L325.333 295.468L351.333 330.106L368.666 312.787Z" fill="#E4E4E4"/>
<path d="M221.333 217.532V260.83L256 226.191L221.333 217.532Z" fill="#FCFCFC"/>
<path d="M290.667 217.532V260.83L256 226.191L290.667 217.532Z" fill="#FCFCFC"/>
<path d="M221.333 260.83L256 226.191V260.83H221.333Z" fill="#FEFEFE"/>
<path d="M290.667 260.83L256 226.191V260.83H290.667Z" fill="#FEFEFE"/>
<path d="M256 260.83H221.333V295.468L256 260.83Z" fill="#FDFDFD"/>
<path d="M256 260.83H290.667V295.468L256 260.83Z" fill="#FDFDFD"/>
<path d="M256 260.83L221.333 295.468H256V260.83Z" fill="#E7E7E7"/>
<path d="M256 260.83L290.667 295.468H256V260.83Z" fill="#E7E7E7"/>
<path d="M160.667 330.106L178 338.766L134.667 390.723L160.667 330.106Z" fill="#F6F6F6"/>
<path d="M351.333 330.106L334 338.766L377.333 390.723L351.333 330.106Z" fill="#F6F6F6"/>
<path d="M186.667 295.468L160.667 330.106L169.675 334.607L186.667 295.468Z" fill="#EBEBEB"/>
<path d="M325.333 295.468L351.333 330.106L342.325 334.607L325.333 295.468Z" fill="#EBEBEB"/>
<path d="M169.675 334.607L178 338.766L134.667 390.723L169.675 334.607Z" fill="#F6F6F6"/>
<path d="M342.325 334.607L334 338.766L377.333 390.723L342.325 334.607Z" fill="#F6F6F6"/>
<path d="M221.333 295.468H186.667L230 338.766L221.333 295.468Z" fill="#F5F5F5"/>
<path d="M290.667 295.468H325.333L282 338.766L290.667 295.468Z" fill="#F5F5F5"/>
<path d="M221.333 295.468H256V330.106L221.333 295.468Z" fill="#EEEEEE"/>
<path d="M290.667 295.468H256V330.106L290.667 295.468Z" fill="#EEEEEE"/>
<path d="M230 338.766L221.333 295.468L256 330.106L230 338.766Z" fill="#F6F6F6"/>
<path d="M282 338.766L290.667 295.468L256 330.106L282 338.766Z" fill="#F6F6F6"/>
<path d="M230 338.766L256 330.106V364.745L230 338.766Z" fill="#FDFDFD"/>
<path d="M282 338.766L256 330.106V364.745L282 338.766Z" fill="#FDFDFD"/>
<path d="M256 364.745L230 338.766V390.723L256 364.745Z" fill="#FEFEFE"/>
<path d="M256 364.745L282 338.766V390.723L256 364.745Z" fill="#FEFEFE"/>
<path d="M134.667 390.723L204 347.425H212.666L134.667 390.723Z" fill="#EFEFEF"/>
<path d="M377.333 390.723L308 347.425H299.334L377.333 390.723Z" fill="#EFEFEF"/>
<path d="M134.667 390.723L178 338.766L204 347.425L134.667 390.723Z" fill="#F2F2F2"/>
<path d="M377.333 390.723L334 338.766L308 347.425L377.333 390.723Z" fill="#F2F2F2"/>
<path d="M134.667 390.723L164.64 374.085L178 434.021L134.667 390.723Z" fill="#DEDEDE"/>
<path d="M377.333 390.723L347.36 374.085L334 434.021L377.333 390.723Z" fill="#DEDEDE"/>
<path d="M164.64 374.085L212.666 347.425H204L164.64 374.085Z" fill="#EFEFEF"/>
<path d="M347.36 374.085L299.334 347.425H308L347.36 374.085Z" fill="#EFEFEF"/>
<path d="M178 434.021L178.561 366.357L230 390.723L178 434.021Z" fill="#DFDFDF"/>
<path d="M334 434.021L333.439 366.357L282 390.723L334 434.021Z" fill="#DFDFDF"/>
<path d="M178.561 366.357L204 347.425H212.666L178.561 366.357Z" fill="#EFEFEF"/>
<path d="M333.439 366.357L308 347.425H299.334L333.439 366.357Z" fill="#EFEFEF"/>
<path d="M256 364.745L230 390.723H256V364.745Z" fill="#FDFDFD"/>
<path d="M256 364.745L282 390.723H256V364.745Z" fill="#FDFDFD"/>
<path d="M178 434.021L230 390.723L238.667 425.362L178 434.021Z" fill="#F5F5F5"/>
<path d="M334 434.021L282 390.723L273.333 425.362L334 434.021Z" fill="#F5F5F5"/>
<path d="M238.667 425.362L230 390.723L256 425.362H238.667Z" fill="#E6E6E6"/>
<path d="M273.333 425.362L282 390.723L256 425.362H273.333Z" fill="#E6E6E6"/>
<path d="M212.666 347.425L230 338.766V390.723L212.666 347.425Z" fill="#F0F0F0"/>
<path d="M299.334 347.425L282 338.766V390.723L299.334 347.425Z" fill="#F0F0F0"/>
<path d="M230 390.723L212.666 347.425L178.561 366.357L230 390.723Z" fill="#FAFAFA"/>
<path d="M282 390.723L299.334 347.425L333.439 366.357L282 390.723Z" fill="#FAFAFA"/>
<path d="M178 434.021L238.667 425.362L230 451.34L178 434.021Z" fill="#C0C0C0"/>
<path d="M334 434.021L273.333 425.362L282 451.34L334 434.021Z" fill="#C0C0C0"/>
<path d="M230 451.34L238.667 425.362H256L230 451.34Z" fill="#C0C0C0"/>
<path d="M282 451.34L273.333 425.362H256L282 451.34Z" fill="#C0C0C0"/>
<path d="M256 425.362L230 451.34L256 460V425.362Z" fill="#BEBEBE"/>
<path d="M256 425.362L282 451.34L256 460V425.362Z" fill="#BEBEBE"/>
<path d="M178 434.021L164.64 374.085L178.561 366.357L178 434.021Z" fill="#ECECEC"/>
<path d="M334 434.021L347.36 374.085L333.439 366.357L334 434.021Z" fill="#ECECEC"/>
<defs>
<linearGradient id="paint0_linear_4439_5" x1="38.6707" y1="31.3962" x2="499.584" y2="474.207" gradientUnits="userSpaceOnUse">
<stop stop-color="#0F0F0F"/>
<stop offset="1" stop-color="#1F1F1F"/>
</linearGradient>
</defs>
</svg>
