<svg viewBox="0 0 1000 1000" fill="none" xmlns="http://www.w3.org/2000/svg"><g transform="translate(499.625 499.625)scale(3.70375)"><radialGradient id="a" gradientUnits="userSpaceOnUse" gradientTransform="rotate(-90 202.353 67.452)scale(231.991)" cx="0" cy="0" r="1" fx="0" fy="0"><stop offset="0%" style="stop-color:#fb3a5d;stop-opacity:1"/><stop offset="100%" style="stop-color:#ff4b6c;stop-opacity:1"/></radialGradient><path style="stroke:none;stroke-width:1;stroke-dasharray:none;stroke-linecap:butt;stroke-dashoffset:0;stroke-linejoin:miter;stroke-miterlimit:4;fill:url(#a);fill-rule:nonzero;opacity:1" transform="translate(-134.902 -134.903)" d="M220.967 32.9c-11.562-.86-23.608 2.448-34.47 11.146a.527.527 0 0 1-.85-.356c-1.386-13.657-7.505-24.318-16.296-31.7C159.755 3.93 147.249 0 134.9 0s-24.856 3.93-34.452 11.99c-8.79 7.381-14.908 18.04-16.296 31.695a.527.527 0 0 1-.85.356c-10.868-8.694-22.916-11.999-34.478-11.134C36.2 33.85 24.52 39.729 15.8 48.264S1.09 68.214.134 80.53c-.965 12.43 3.23 25.444 14.287 36.86l.009.008a201 201 0 0 0 3.065 3.083l.011.011A160 160 0 0 0 33.9 134.489a.515.515 0 0 1 0 .825 160 160 0 0 0-16.39 13.994 128 128 0 0 0-3.1 3.116C3.36 163.849-.832 176.867.136 189.296c.96 12.318 6.952 23.73 15.676 32.263s20.403 14.406 33.026 15.346c11.562.861 23.608-2.447 34.47-11.146a.527.527 0 0 1 .85.357c1.386 13.656 7.505 24.317 16.296 31.699 9.596 8.059 22.102 11.99 34.451 11.99s24.856-3.931 34.452-11.99c8.79-7.381 14.908-18.04 16.296-31.694a.527.527 0 0 1 .85-.357c10.868 8.695 22.916 11.999 34.478 11.135 12.624-.944 24.304-6.823 33.024-15.358s14.71-19.95 15.666-32.265c.965-12.429-3.231-25.444-14.287-36.86l-.009-.008a202 202 0 0 0-3.065-3.082l-.011-.011a160 160 0 0 0-16.393-13.998.515.515 0 0 1 0-.825 160 160 0 0 0 19.489-17.11c11.052-11.426 15.243-24.444 14.275-36.873-.959-12.317-6.952-23.73-15.676-32.263S233.59 33.84 220.967 32.9"/></g><g transform="translate(499.625 314.167)scale(3.70375)"><radialGradient id="b" gradientUnits="userSpaceOnUse" gradientTransform="matrix(0 -145.873 231.991 0 135.019 169.504)" cx="0" cy="0" r="1" fx="0" fy="0"><stop offset="0%" style="stop-color:#ff6b17;stop-opacity:.01"/><stop offset="100%" style="stop-color:#ff6b17;stop-opacity:.01"/></radialGradient><path style="stroke:none;stroke-width:1;stroke-dasharray:none;stroke-linecap:butt;stroke-dashoffset:0;stroke-linejoin:miter;stroke-miterlimit:4;fill:url(#b);fill-rule:evenodd;opacity:.35" transform="translate(-134.903 -84.825)" d="M185.648 43.689c.042.41.528.615.85.357 10.862-8.7 22.907-12.007 34.47-11.146 12.622.94 24.303 6.813 33.026 15.346 8.723 8.532 14.716 19.945 15.676 32.262.968 12.43-3.224 25.448-14.275 36.873a130 130 0 0 1-3.099 3.116c-50.122 49.019-117.382 49.152-117.393 49.152h-.003c-.341 0-67.137-.002-117.393-49.159l-.012-.011a202 202 0 0 1-3.065-3.082l-.008-.009C3.365 105.973-.831 92.958.134 80.528 1.091 68.215 7.08 56.8 15.8 48.265S36.2 33.85 48.825 32.906c11.562-.864 23.61 2.44 34.478 11.135a.527.527 0 0 0 .85-.357c1.387-13.654 7.505-24.313 16.295-31.695C110.045 3.93 122.551 0 134.9 0s24.855 3.93 34.452 11.99c8.791 7.382 14.91 18.043 16.296 31.699"/></g><path style="stroke:none;stroke-width:1;stroke-dasharray:none;stroke-linecap:butt;stroke-dashoffset:0;stroke-linejoin:miter;stroke-miterlimit:4;fill:#ffcdd6;fill-rule:nonzero;opacity:1" transform="translate(.01 .007)scale(3.70375)" d="M94.091 122.729c-4.504 0-8.182 3.659-8.182 8.14v18.492c0 4.481 3.678 8.141 8.182 8.141s8.182-3.66 8.182-8.141v-18.492c0-4.481-3.658-8.14-8.182-8.14"/><g transform="translate(348.5 518.958)scale(3.70375)"><radialGradient id="c" gradientUnits="userSpaceOnUse" gradientTransform="matrix(0 23.0317 -15.3493 0 94.091 134.47)" cx="0" cy="0" r="1" fx="0" fy="0"><stop offset="0%" style="stop-color:#fff;stop-opacity:.75"/><stop offset="100%" style="stop-color:#fff;stop-opacity:0"/></radialGradient><path style="stroke:none;stroke-width:1;stroke-dasharray:none;stroke-linecap:butt;stroke-dashoffset:0;stroke-linejoin:miter;stroke-miterlimit:4;fill:url(#c);fill-rule:nonzero;opacity:1" transform="translate(-94.091 -140.115)" d="M94.091 122.729c-4.504 0-8.182 3.659-8.182 8.14v18.492c0 4.481 3.678 8.141 8.182 8.141s8.182-3.66 8.182-8.141v-18.492c0-4.481-3.658-8.14-8.182-8.14"/></g><path style="stroke:none;stroke-width:1;stroke-dasharray:none;stroke-linecap:butt;stroke-dashoffset:0;stroke-linejoin:miter;stroke-miterlimit:4;fill:#ffcdd6;fill-rule:nonzero;opacity:1" transform="translate(-.006 .01)scale(3.70375)" d="M145.011 140.676c-2.061.571-7.233 1.732-10.007 1.732-3.052 0-8.382-1.279-10.007-1.732a8.16 8.16 0 0 0-6.261.768 8.17 8.17 0 0 0-3.884 4.941 8.03 8.03 0 0 0 .773 6.222 8.1 8.1 0 0 0 4.973 3.839c.337.098 8.442 2.323 14.406 2.323s14.069-2.225 14.406-2.323c4.379-1.201 6.955-5.71 5.746-10.08-1.208-4.351-5.746-6.911-10.145-5.71z"/><g transform="translate(500 553.958)scale(3.70375)"><radialGradient id="d" gradientUnits="userSpaceOnUse" gradientTransform="matrix(0 12.1933 -38.3732 0 135 146.576)" cx="0" cy="0" r="1" fx="0" fy="0"><stop offset="0%" style="stop-color:#fff;stop-opacity:.75"/><stop offset="100%" style="stop-color:#fff;stop-opacity:0"/></radialGradient><path style="stroke:none;stroke-width:1;stroke-dasharray:none;stroke-linecap:butt;stroke-dashoffset:0;stroke-linejoin:miter;stroke-miterlimit:4;fill:url(#d);fill-rule:nonzero;opacity:1" transform="translate(-135 -149.564)" d="M145.011 140.676c-2.061.571-7.233 1.732-10.007 1.732-3.052 0-8.382-1.279-10.007-1.732a8.16 8.16 0 0 0-6.261.768 8.17 8.17 0 0 0-3.884 4.941 8.03 8.03 0 0 0 .773 6.222 8.1 8.1 0 0 0 4.973 3.839c.337.098 8.442 2.323 14.406 2.323s14.069-2.225 14.406-2.323c4.379-1.201 6.955-5.71 5.746-10.08-1.208-4.351-5.746-6.911-10.145-5.71z"/></g><path style="stroke:none;stroke-width:1;stroke-dasharray:none;stroke-linecap:butt;stroke-dashoffset:0;stroke-linejoin:miter;stroke-miterlimit:4;fill:#ffcdd6;fill-rule:nonzero;opacity:1" transform="translate(-.023 .007)scale(3.70375)" d="M175.909 122.729c4.504 0 8.182 3.659 8.182 8.14v18.492c0 4.481-3.678 8.141-8.182 8.141s-8.182-3.66-8.182-8.141v-18.492c0-4.481 3.658-8.14 8.182-8.14"/><g transform="translate(651.5 518.958)scale(3.70375)"><radialGradient id="e" gradientUnits="userSpaceOnUse" gradientTransform="scale(15.3493 23.0317)rotate(90 2.811 8.65)" cx="0" cy="0" r="1" fx="0" fy="0"><stop offset="0%" style="stop-color:#fff;stop-opacity:.75"/><stop offset="100%" style="stop-color:#fff;stop-opacity:0"/></radialGradient><path style="stroke:none;stroke-width:1;stroke-dasharray:none;stroke-linecap:butt;stroke-dashoffset:0;stroke-linejoin:miter;stroke-miterlimit:4;fill:url(#e);fill-rule:nonzero;opacity:1" transform="translate(-175.909 -140.115)" d="M175.909 122.729c4.504 0 8.182 3.659 8.182 8.14v18.492c0 4.481-3.678 8.141-8.182 8.141s-8.182-3.66-8.182-8.141v-18.492c0-4.481 3.658-8.14 8.182-8.14"/></g></svg>